<svg xmlns="http://www.w3.org/2000/svg" width="25" height="18.36" viewBox="0 0 25 18.36">
  <title>recAsset 49</title>
  <g id="Layer_2" data-name="Layer 2">
    <g id="Layer_1-2" data-name="Layer 1">
      <path d="M25,12.5a3.33,3.33,0,0,1-.32,1.42,13.22,13.22,0,0,1-2.1,3.21,13.52,13.52,0,0,1-2.87,2.44,13.84,13.84,0,0,1-3.43,1.56,13.32,13.32,0,0,1-7.57,0,13.84,13.84,0,0,1-3.43-1.56,13.5,13.5,0,0,1-2.87-2.44,13.16,13.16,0,0,1-2.1-3.21,3.32,3.32,0,0,1,0-2.83,13.18,13.18,0,0,1,2.1-3.21A13.5,13.5,0,0,1,5.29,5.43,13.84,13.84,0,0,1,8.72,3.87a13.32,13.32,0,0,1,7.57,0,13.84,13.84,0,0,1,3.43,1.56,13.52,13.52,0,0,1,2.87,2.44,13.23,13.23,0,0,1,2.1,3.21A3.34,3.34,0,0,1,25,12.5ZM14.33,16.85a4.76,4.76,0,0,0,2.51-2.51,4.76,4.76,0,0,0,0-3.66,4.76,4.76,0,0,0-2.51-2.51,4.76,4.76,0,0,0-3.66,0,4.76,4.76,0,0,0-2.51,2.51,4.76,4.76,0,0,0,0,3.66,4.76,4.76,0,0,0,2.51,2.51,4.76,4.76,0,0,0,3.66,0Zm.24-6.42a2.95,2.95,0,0,1,0,4.15,2.95,2.95,0,0,1-4.15,0,2.95,2.95,0,0,1,0-4.15,2.95,2.95,0,0,1,4.15,0Z" transform="translate(0 -3.32)" style="fill: #c8c8c8"/>
    </g>
  </g>
</svg>
