<svg xmlns="http://www.w3.org/2000/svg" width="286.61" height="147.94" viewBox="0 0 286.61 147.94">
  <title>recAsset 28</title>
  <g id="Layer_2" data-name="Layer 2">
    <g id="Layer_1-2" data-name="Layer 1">
      <g>
        <path d="M113,113.84a7.88,7.88,0,0,1-1.89,5.69,7.49,7.49,0,0,1-5.63,2,8.81,8.81,0,0,1-4-.86,6.13,6.13,0,0,1-2.62-2.44,7.26,7.26,0,0,1-.91-3.69v-.59h4.62a3.89,3.89,0,0,0,.67,2.52,2.54,2.54,0,0,0,2.07.8,2.57,2.57,0,0,0,1.68-.47,2.2,2.2,0,0,0,.75-1.19,7.2,7.2,0,0,0,.18-1.72V98.48H113Z" transform="translate(-0.73)" style="fill: #4188b5"/>
        <path d="M129.29,98.48,137.68,121h-5.3l-1.66-4.82h-8.3L120.73,121h-5.17l8.52-22.48Zm-2.67,5.73-2.86,8.13h5.69l-2.77-8.13Z" transform="translate(-0.73)" style="fill: #4188b5"/>
        <path d="M142.37,98.48l3.48,15.16h.06l3.81-15.16h4.75l3.74,15.36h.06l3.61-15.36h5L160.85,121h-5.08l-3.71-15.13H152L148.39,121h-5.17l-6-22.48Z" transform="translate(-0.73)" style="fill: #4188b5"/>
        <path d="M181.57,104.47a2.38,2.38,0,0,0-1.09-1.92,5.49,5.49,0,0,0-3-.65,5,5,0,0,0-2.55.59,1.83,1.83,0,0,0-1,1.66,2.51,2.51,0,0,0,.23,1.15,1.82,1.82,0,0,0,.83.75,9.8,9.8,0,0,0,1.77.63l3.09.81a27,27,0,0,1,3.82,1.29,6.62,6.62,0,0,1,2.55,2,5.43,5.43,0,0,1,1,3.47,6.61,6.61,0,0,1-1.11,3.81,7.2,7.2,0,0,1-3.24,2.54,12.91,12.91,0,0,1-5.09.91,14.59,14.59,0,0,1-4.7-.73,7.8,7.8,0,0,1-3.51-2.31,5.82,5.82,0,0,1-1.35-3.92v-.16h5v.06a2.5,2.5,0,0,0,1.38,2.39,7.44,7.44,0,0,0,3.5.73,6.37,6.37,0,0,0,3-.63,2,2,0,0,0,1.2-1.9,2.25,2.25,0,0,0-.88-1.82,8.18,8.18,0,0,0-3-1.27l-4.46-1.2q-5-1.33-5-5.92a5.93,5.93,0,0,1,1.19-3.73,7.25,7.25,0,0,1,3.16-2.33A11.59,11.59,0,0,1,177.7,98a13.35,13.35,0,0,1,4.46.7,7,7,0,0,1,3.17,2.16,5.6,5.6,0,0,1,1.19,3.64Z" transform="translate(-0.73)" style="fill: #4188b5"/>
        <path d="M10.1,143.07A5.14,5.14,0,0,1,9,146.76a4.87,4.87,0,0,1-3.63,1.18q-4.59,0-4.59-4.76v0H2.3A3.93,3.93,0,0,0,3,145.68a3,3,0,0,0,2.46.86,3.39,3.39,0,0,0,1.79-.4,2.3,2.3,0,0,0,.95-1.3,8,8,0,0,0,.3-2.41V131.24H10.1Z" transform="translate(-0.73)" style="fill: #959595"/>
        <path d="M15.14,132.49a1.06,1.06,0,0,1-.78.31,1,1,0,0,1-.77-.32,1.15,1.15,0,0,1,0-1.54,1,1,0,0,1,.77-.32,1,1,0,0,1,.78.32,1.07,1.07,0,0,1,.31.77A1.06,1.06,0,0,1,15.14,132.49Zm0,2.89v12.21H13.63V135.38Z" transform="translate(-0.73)" style="fill: #959595"/>
        <path d="M28.34,144.76a5.45,5.45,0,0,1-2,2.33,5.29,5.29,0,0,1-3,.85,5.18,5.18,0,0,1-3-.86,5.57,5.57,0,0,1-1.94-2.33,8.24,8.24,0,0,1,0-6.53,5.58,5.58,0,0,1,1.94-2.33,5.18,5.18,0,0,1,3-.86,5.28,5.28,0,0,1,3,.86,5.45,5.45,0,0,1,1.94,2.34,8.31,8.31,0,0,1,0,6.53ZM25.62,146A4.58,4.58,0,0,0,27,144a6.7,6.7,0,0,0,.49-2.54A6.78,6.78,0,0,0,27,139,4.55,4.55,0,0,0,25.63,137a3.56,3.56,0,0,0-2.27-.75,3.48,3.48,0,0,0-2.19.72,4.5,4.5,0,0,0-1.42,1.92,7,7,0,0,0,0,5.14A4.49,4.49,0,0,0,21.17,146a3.76,3.76,0,0,0,4.45,0Z" transform="translate(-0.73)" style="fill: #959595"/>
        <path d="M45.36,131.24l6.44,16.35H50.07l-2-5H40.65l-2,5H37l6.6-16.35Zm-1,1.63-3.22,8.31h6.39l-3.12-8.31Z" transform="translate(-0.73)" style="fill: #959595"/>
        <path d="M63.94,147.59H62.45v-2.13h0a3.73,3.73,0,0,1-1,1.33,4.58,4.58,0,0,1-1.47.86,4.79,4.79,0,0,1-1.64.3,5,5,0,0,1-2.91-.84,5.09,5.09,0,0,1-1.81-2.31,8.64,8.64,0,0,1-.6-3.31,8.51,8.51,0,0,1,.6-3.27,5.28,5.28,0,0,1,1.8-2.33,4.86,4.86,0,0,1,2.92-.86,4.76,4.76,0,0,1,1.73.32,4.32,4.32,0,0,1,1.46.92,3.56,3.56,0,0,1,.91,1.43h0v-7h1.49ZM60.63,146A4.13,4.13,0,0,0,62,144.11a7.89,7.89,0,0,0,0-5.22A4.23,4.23,0,0,0,60.65,137a3.65,3.65,0,0,0-2.32-.72,3.23,3.23,0,0,0-2.17.73,4.33,4.33,0,0,0-1.28,1.92,7.68,7.68,0,0,0-.41,2.56,7.57,7.57,0,0,0,.43,2.58,4.33,4.33,0,0,0,1.29,1.9,3.22,3.22,0,0,0,2.14.72A3.7,3.7,0,0,0,60.63,146Z" transform="translate(-0.73)" style="fill: #959595"/>
        <path d="M67.49,135.38l3.69,10.72h0l3.64-10.72h1.51L72,147.59H70.4l-4.57-12.21Z" transform="translate(-0.73)" style="fill: #959595"/>
        <path d="M85.8,139.52a3.83,3.83,0,0,0-.66-2.38,2.75,2.75,0,0,0-2.32-.86,4.14,4.14,0,0,0-2.24.51,2,2,0,0,0-.94,1.46H78.18a3.45,3.45,0,0,1,.72-1.69,3.78,3.78,0,0,1,1.6-1.12,6.41,6.41,0,0,1,2.37-.4,4.6,4.6,0,0,1,3.3,1.08,4.34,4.34,0,0,1,1.12,3.28v8.21H86l-.14-1.82h-.07a4.58,4.58,0,0,1-1.54,1.55,4.48,4.48,0,0,1-2.44.63,5.26,5.26,0,0,1-2.18-.43,3.22,3.22,0,0,1-1.47-1.28,3.88,3.88,0,0,1-.52-2.06,3.08,3.08,0,0,1,1.6-2.93,9.69,9.69,0,0,1,4.58-.88h2Zm-1.73,2a13,13,0,0,0-2.75.24,3.15,3.15,0,0,0-1.63.83,2.68,2.68,0,0,0,.17,3.49,3,3,0,0,0,2,.63,4.17,4.17,0,0,0,2-.48,3.51,3.51,0,0,0,1.42-1.42,4.43,4.43,0,0,0,.52-2.19v-1.09Z" transform="translate(-0.73)" style="fill: #959595"/>
        <path d="M100,147.59H98.56V140a4.31,4.31,0,0,0-.78-2.78,3,3,0,0,0-2.48-1,3.22,3.22,0,0,0-2.56,1,4.07,4.07,0,0,0-.85,2.77v7.57H90.39V135.38h1.49v1.85h0a3.45,3.45,0,0,1,3.53-2.2q4.59,0,4.59,4.64Z" transform="translate(-0.73)" style="fill: #959595"/>
        <path d="M111.6,138.74a3.31,3.31,0,0,0-1.18-1.82A3.87,3.87,0,0,0,106,137a4.6,4.6,0,0,0-1.41,1.93,7,7,0,0,0,0,5.08A4.58,4.58,0,0,0,106,146a3.75,3.75,0,0,0,3.87.35,3.16,3.16,0,0,0,1.19-1.06,3.87,3.87,0,0,0,.6-1.56h1.44a5.64,5.64,0,0,1-.85,2.21,4.51,4.51,0,0,1-1.67,1.5,5,5,0,0,1-2.35.54,5.24,5.24,0,0,1-3-.86,5.54,5.54,0,0,1-2-2.33,8.29,8.29,0,0,1,0-6.58,5.43,5.43,0,0,1,2-2.31,5.32,5.32,0,0,1,3-.84,4.88,4.88,0,0,1,3.23,1,4.54,4.54,0,0,1,1.55,2.7Z" transform="translate(-0.73)" style="fill: #959595"/>
        <path d="M125.65,141.88h-9.09a6.82,6.82,0,0,0,.45,2.35,4,4,0,0,0,1.3,1.77,3.38,3.38,0,0,0,2.13.67,3.79,3.79,0,0,0,2.31-.64,3.14,3.14,0,0,0,1.17-1.73h1.47a4.88,4.88,0,0,1-1.7,2.67,5.9,5.9,0,0,1-6.2.13,5,5,0,0,1-1.81-2.28,8.77,8.77,0,0,1-.6-3.36,8.55,8.55,0,0,1,.59-3.21,5.31,5.31,0,0,1,1.8-2.37,4.9,4.9,0,0,1,3-.89,4.73,4.73,0,0,1,2.8.83,5.19,5.19,0,0,1,1.79,2.3,8.69,8.69,0,0,1,.62,3.38Zm-1.49-1.25a5.7,5.7,0,0,0-.51-2.17,3.93,3.93,0,0,0-1.29-1.6,3.45,3.45,0,0,0-3.77-.06,4.08,4.08,0,0,0-1.35,1.51,6.18,6.18,0,0,0-.67,2.31Z" transform="translate(-0.73)" style="fill: #959595"/>
        <path d="M138.55,147.59h-1.49v-2.13h0a3.72,3.72,0,0,1-1,1.33,4.59,4.59,0,0,1-1.47.86,4.8,4.8,0,0,1-1.64.3,5,5,0,0,1-2.91-.84,5.09,5.09,0,0,1-1.81-2.31,8.64,8.64,0,0,1-.6-3.31,8.51,8.51,0,0,1,.6-3.27,5.28,5.28,0,0,1,1.8-2.33,4.86,4.86,0,0,1,2.92-.86,4.76,4.76,0,0,1,1.73.32,4.31,4.31,0,0,1,1.46.92,3.57,3.57,0,0,1,.91,1.43h0v-7h1.49Zm-3.31-1.6a4.15,4.15,0,0,0,1.37-1.88,7.9,7.9,0,0,0,0-5.22,4.23,4.23,0,0,0-1.36-1.89,3.65,3.65,0,0,0-2.32-.72,3.23,3.23,0,0,0-2.17.73,4.33,4.33,0,0,0-1.28,1.92,7.68,7.68,0,0,0-.41,2.56,7.57,7.57,0,0,0,.43,2.58,4.33,4.33,0,0,0,1.29,1.9,3.23,3.23,0,0,0,2.14.72A3.7,3.7,0,0,0,135.24,146Z" transform="translate(-0.73)" style="fill: #959595"/>
        <path d="M149,131.24l3.69,14.22h0l4-14.22h2l4,14.22h0l3.71-14.22H168l-4.52,16.35h-1.7L157.69,133h0l-4.09,14.55H151.8l-4.54-16.35Z" transform="translate(-0.73)" style="fill: #959595"/>
        <path d="M179.56,141.88h-9.09a6.79,6.79,0,0,0,.45,2.35,4,4,0,0,0,1.3,1.77,3.38,3.38,0,0,0,2.13.67,3.79,3.79,0,0,0,2.31-.64,3.14,3.14,0,0,0,1.17-1.73h1.47a4.87,4.87,0,0,1-1.7,2.67,5.9,5.9,0,0,1-6.2.13,5,5,0,0,1-1.81-2.28,8.77,8.77,0,0,1-.6-3.36,8.55,8.55,0,0,1,.59-3.21,5.31,5.31,0,0,1,1.8-2.37,4.9,4.9,0,0,1,3-.89,4.73,4.73,0,0,1,2.8.83,5.2,5.2,0,0,1,1.79,2.3,8.71,8.71,0,0,1,.62,3.38Zm-1.49-1.25a5.71,5.71,0,0,0-.51-2.17,3.93,3.93,0,0,0-1.29-1.6,3.25,3.25,0,0,0-1.94-.59,3.29,3.29,0,0,0-1.83.53,4.09,4.09,0,0,0-1.35,1.51,6.17,6.17,0,0,0-.67,2.31Z" transform="translate(-0.73)" style="fill: #959595"/>
        <path d="M183.49,137.7h0a3.42,3.42,0,0,1,.88-1.41,4.31,4.31,0,0,1,1.46-.94,4.82,4.82,0,0,1,1.79-.33,4.87,4.87,0,0,1,2.88.84,5.21,5.21,0,0,1,1.81,2.31,9.18,9.18,0,0,1,0,6.58,5.25,5.25,0,0,1-1.81,2.33,5.25,5.25,0,0,1-5.42.21,3.64,3.64,0,0,1-1.58-1.83h0v2.13H182v-16.9h1.49Zm.44,6.37a4.2,4.2,0,0,0,1.36,1.9,3.65,3.65,0,0,0,2.32.72,3.2,3.2,0,0,0,2.17-.75A4.41,4.41,0,0,0,191,144a7.6,7.6,0,0,0,.41-2.53,7.68,7.68,0,0,0-.41-2.56,4.29,4.29,0,0,0-1.29-1.92,3.28,3.28,0,0,0-2.18-.73,3.71,3.71,0,0,0-2.22.66,4.07,4.07,0,0,0-1.4,1.83,7.13,7.13,0,0,0-.47,2.69A7.45,7.45,0,0,0,183.92,144.06Z" transform="translate(-0.73)" style="fill: #959595"/>
        <path d="M212.69,135.38a2.94,2.94,0,0,0-1.36-2.34,5.72,5.72,0,0,0-3.14-.78,5.12,5.12,0,0,0-3,.78,2.75,2.75,0,0,0-1.14,2.44,2.3,2.3,0,0,0,.34,1.31,2.22,2.22,0,0,0,.92.78,7.73,7.73,0,0,0,1.48.48l3.57.85a9,9,0,0,1,2.54,1,3.74,3.74,0,0,1,1.41,1.42,4.14,4.14,0,0,1,.45,2,4.88,4.88,0,0,1-.5,2.09,4.24,4.24,0,0,1-1.89,1.82,8.13,8.13,0,0,1-3.88.77,10,10,0,0,1-3.53-.56,4.7,4.7,0,0,1-2.24-1.63,4.38,4.38,0,0,1-.77-2.61V143h1.56v.12a2.87,2.87,0,0,0,1.33,2.61,6.82,6.82,0,0,0,3.67.84,6.36,6.36,0,0,0,3.38-.8,2.69,2.69,0,0,0,1.3-2.46,2.29,2.29,0,0,0-.82-1.85,6.11,6.11,0,0,0-2.47-1.09l-3.43-.83a8.7,8.7,0,0,1-2.31-.86,3.3,3.3,0,0,1-1.28-1.28,3.92,3.92,0,0,1-.41-1.88,4.57,4.57,0,0,1,.54-2.12,4.41,4.41,0,0,1,1.81-1.77,6.57,6.57,0,0,1,3.28-.72,8.4,8.4,0,0,1,3.1.53,5,5,0,0,1,2.14,1.54,4,4,0,0,1,.84,2.43Z" transform="translate(-0.73)" style="fill: #959595"/>
        <path d="M227.48,141.88h-9.09a6.79,6.79,0,0,0,.45,2.35,4,4,0,0,0,1.3,1.77,3.38,3.38,0,0,0,2.13.67,3.79,3.79,0,0,0,2.31-.64,3.14,3.14,0,0,0,1.17-1.73h1.47a4.87,4.87,0,0,1-1.7,2.67,5.9,5.9,0,0,1-6.2.13,5,5,0,0,1-1.81-2.28,8.77,8.77,0,0,1-.6-3.36,8.55,8.55,0,0,1,.59-3.21,5.31,5.31,0,0,1,1.8-2.37,4.9,4.9,0,0,1,3-.89,4.73,4.73,0,0,1,2.8.83,5.2,5.2,0,0,1,1.79,2.3,8.71,8.71,0,0,1,.62,3.38ZM226,140.63a5.71,5.71,0,0,0-.51-2.17,3.93,3.93,0,0,0-1.29-1.6,3.25,3.25,0,0,0-1.94-.59,3.29,3.29,0,0,0-1.83.53,4.09,4.09,0,0,0-1.35,1.51,6.17,6.17,0,0,0-.67,2.31Z" transform="translate(-0.73)" style="fill: #959595"/>
        <path d="M235.81,136.44a4.11,4.11,0,0,0-.87-.07,3.38,3.38,0,0,0-1.93.53,3.3,3.3,0,0,0-1.2,1.46,5.28,5.28,0,0,0-.4,2.13v7.1h-1.49V135.38h1.49v2.08h0a3.61,3.61,0,0,1,1.31-1.79A3.74,3.74,0,0,1,235,135l.8,0Z" transform="translate(-0.73)" style="fill: #959595"/>
        <path d="M238,135.38l3.69,10.72h0l3.64-10.72h1.51l-4.4,12.21h-1.58l-4.57-12.21Z" transform="translate(-0.73)" style="fill: #959595"/>
        <path d="M250.31,132.49a1.06,1.06,0,0,1-.78.31,1,1,0,0,1-.77-.32,1.15,1.15,0,0,1,0-1.54,1,1,0,0,1,.77-.32,1,1,0,0,1,.78.32,1.07,1.07,0,0,1,.31.77A1.06,1.06,0,0,1,250.31,132.49Zm0,2.89v12.21H248.8V135.38Z" transform="translate(-0.73)" style="fill: #959595"/>
        <path d="M261.88,138.74a3.31,3.31,0,0,0-1.18-1.82,3.87,3.87,0,0,0-4.41.11,4.59,4.59,0,0,0-1.41,1.93,7,7,0,0,0,0,5.08,4.59,4.59,0,0,0,1.42,1.93,3.75,3.75,0,0,0,3.87.35,3.17,3.17,0,0,0,1.2-1.06,3.86,3.86,0,0,0,.6-1.56h1.44a5.65,5.65,0,0,1-.85,2.21,4.5,4.5,0,0,1-1.67,1.5,5,5,0,0,1-2.35.54,5.24,5.24,0,0,1-3-.86,5.55,5.55,0,0,1-2-2.33,8.3,8.3,0,0,1,0-6.58,5.44,5.44,0,0,1,2-2.31,5.32,5.32,0,0,1,3-.84,4.88,4.88,0,0,1,3.23,1,4.55,4.55,0,0,1,1.55,2.7Z" transform="translate(-0.73)" style="fill: #959595"/>
        <path d="M275.94,141.88h-9.09a6.79,6.79,0,0,0,.45,2.35,4,4,0,0,0,1.3,1.77,3.38,3.38,0,0,0,2.13.67A3.79,3.79,0,0,0,273,146a3.14,3.14,0,0,0,1.17-1.73h1.47A4.87,4.87,0,0,1,274,147a5.9,5.9,0,0,1-6.2.13,5,5,0,0,1-1.81-2.28,8.77,8.77,0,0,1-.6-3.36,8.55,8.55,0,0,1,.59-3.21,5.31,5.31,0,0,1,1.8-2.37,4.9,4.9,0,0,1,3-.89,4.73,4.73,0,0,1,2.8.83,5.2,5.2,0,0,1,1.79,2.3,8.71,8.71,0,0,1,.62,3.38Zm-1.49-1.25a5.71,5.71,0,0,0-.51-2.17,3.93,3.93,0,0,0-1.29-1.6,3.25,3.25,0,0,0-1.94-.59,3.29,3.29,0,0,0-1.83.53,4.09,4.09,0,0,0-1.35,1.51,6.17,6.17,0,0,0-.67,2.31Z" transform="translate(-0.73)" style="fill: #959595"/>
        <path d="M285.48,138.48a2.12,2.12,0,0,0-.91-1.62,3.71,3.71,0,0,0-2.19-.58,3.62,3.62,0,0,0-2,.51,1.75,1.75,0,0,0-.82,1.6,1.58,1.58,0,0,0,.64,1.29,5,5,0,0,0,2,.82l1.51.35a8.43,8.43,0,0,1,1.68.52,3.57,3.57,0,0,1,1.34,1,2.86,2.86,0,0,1,.58,1.87,3.12,3.12,0,0,1-.7,2.08,4,4,0,0,1-1.79,1.21,6.87,6.87,0,0,1-2.27.38,5.57,5.57,0,0,1-3.44-.95,3.91,3.91,0,0,1-1.43-2.89h1.44a2.46,2.46,0,0,0,1,1.92,4.18,4.18,0,0,0,2.49.66,4.77,4.77,0,0,0,1.54-.25,2.73,2.73,0,0,0,1.19-.77,1.86,1.86,0,0,0,.46-1.28,1.75,1.75,0,0,0-.65-1.44,5.39,5.39,0,0,0-2.12-.85l-1.54-.35a5.79,5.79,0,0,1-2.59-1.18,2.73,2.73,0,0,1-.82-2.11,2.91,2.91,0,0,1,.65-2,3.76,3.76,0,0,1,1.66-1.12,6.38,6.38,0,0,1,2.14-.35,5.46,5.46,0,0,1,2.2.41,3.47,3.47,0,0,1,1.49,1.19,3.74,3.74,0,0,1,.64,1.85Z" transform="translate(-0.73)" style="fill: #959595"/>
      </g>
      <g>
        <path d="M188.65,51l-2.39-1.44L152.66,69.7a10.84,10.84,0,0,1-10.15,0l-33.6-20.16L106.52,51c-2.8,1.68-2.8,4.41,0,6.09l36,21.59a10.84,10.84,0,0,0,10.15,0l36-21.59C191.46,55.39,191.46,52.67,188.65,51Z" transform="translate(-0.73)" style="fill: #c8c8c8"/>
        <path d="M188.65,36.36l-1.52-.91L152.66,56.13a10.84,10.84,0,0,1-10.15,0L108,35.45l-1.52.91c-2.8,1.68-2.8,4.41,0,6.09l36,21.59a10.84,10.84,0,0,0,10.15,0l36-21.59C191.46,40.77,191.46,38,188.65,36.36Z" transform="translate(-0.73)" style="fill: #65c4ea"/>
        <path d="M188.65,28.95l-36,21.59a10.84,10.84,0,0,1-10.15,0l-36-21.59c-2.8-1.68-2.8-4.41,0-6.09l36-21.59a10.84,10.84,0,0,1,10.15,0l36,21.59C191.46,24.54,191.46,27.26,188.65,28.95Z" transform="translate(-0.73)" style="fill: #4188b5"/>
      </g>
    </g>
  </g>
</svg>
